<?xml version="1.0" encoding="iso-8859-1"?>
<!-- Uploaded to: SVG Repo, www.svgrepo.com, Generator: SVG Repo Mixer Tools -->
<svg height="800px" width="800px" version="1.1" id="Layer_1" xmlns="http://www.w3.org/2000/svg" xmlns:xlink="http://www.w3.org/1999/xlink" 
	 viewBox="0 0 511.997 511.997" xml:space="preserve">
<path style="fill:#F3D49D;" d="M257.833,500.869c-83.072,0-150.655-67.583-150.655-150.654V296.67
	c0-17.066,7.178-33.442,19.692-44.931l4.317-3.964L103.907,55.865c-1.474-10.369,1.179-20.69,7.467-29.063
	c6.29-8.374,15.463-13.797,25.832-15.272c1.867-0.265,3.758-0.4,5.623-0.4c8.485,0,16.59,2.72,23.442,7.867
	c8.374,6.29,13.797,15.463,15.272,25.832l13.705,96.415h22.039l13.705-96.415c1.474-10.369,6.897-19.543,15.271-25.831
	c6.853-5.147,14.957-7.868,23.438-7.868c1.865,0,3.759,0.135,5.625,0.4c10.369,1.474,19.544,6.896,25.832,15.271
	c6.289,8.373,8.941,18.696,7.467,29.065l-15.094,106.189l11.755,0.979c8.567,0.715,16.487,4.145,22.904,9.922l7.446,6.705
	l7.446-6.704c7.216-6.496,16.52-10.073,26.195-10.073c21.62,0,39.209,17.588,39.209,39.208v148.124
	C408.488,433.286,340.905,500.869,257.833,500.869z"/>
<path style="fill:#EEBF70;" d="M369.279,151.751c-12.922,0-24.719,4.898-33.642,12.931c-7.941-7.149-18.164-11.801-29.426-12.741
	l13.435-94.51c1.892-13.312-1.512-26.564-9.587-37.314c-8.075-10.752-19.853-17.715-33.165-19.606
	c-13.313-1.893-26.565,1.513-37.315,9.588c-10.752,8.075-17.715,19.853-19.606,33.165l-13.705,96.415l-13.706-96.416
	c-1.892-13.312-8.855-25.09-19.606-33.165c-10.751-8.075-24.005-11.479-37.314-9.588c-13.312,1.892-25.09,8.855-33.165,19.606
	c-8.075,10.751-11.48,24.003-9.588,37.314l26.455,186.108c-14.601,13.403-23.296,32.494-23.296,53.129v53.545
	c0,89.208,72.577,161.785,161.786,161.785s161.785-72.576,161.785-161.785v-46.61V202.088
	C419.618,174.333,397.037,151.751,369.279,151.751z M318.943,202.09v101.514c0,9.345-7.603,16.947-16.948,16.947
	c-9.345,0-16.947-7.602-16.947-16.947V278.7c22.782-11.975,33.1-39.656,23.026-63.868c-4.114-9.886-11.04-17.76-19.461-23.102
	c3.103-3.998,7.94-6.586,13.381-6.586C311.339,185.142,318.943,192.745,318.943,202.09z M253.03,47.962
	c0.637-4.481,2.982-8.447,6.6-11.166c3.621-2.718,8.083-3.862,12.564-3.228c4.481,0.637,8.447,2.982,11.165,6.6
	c2.718,3.62,3.864,8.081,3.227,12.563L270.988,162.48c-7.168,5.624-12.778,13.14-16.064,21.799c-4.257,0.569-8.51,1.687-12.66,3.414
	l-9.667,4.021L253.03,47.962z M129.175,40.169c2.718-3.618,6.684-5.964,11.166-6.6c4.48-0.639,8.943,0.509,12.563,3.228
	c3.62,2.718,5.964,6.684,6.601,11.166l23.374,164.436l-32.324,13.448L125.946,52.732C125.31,48.25,126.456,43.788,129.175,40.169z
	 M257.833,478.608c-70.797,0-128.395-57.597-128.395-128.394V296.67c0-15.717,9.376-29.774,23.888-35.811l101.763-42.337
	c8.626-3.587,18.568,0.51,22.157,9.137c3.591,8.627-0.51,18.568-9.137,22.157l-86.76,36.096v73.517h33.391v-51.243l36.917-15.359
	v10.78c0,27.757,22.581,50.338,50.338,50.338c12.923,0,24.72-4.898,33.644-12.931c8.922,8.033,20.719,12.931,33.643,12.931
	c5.941,0,11.641-1.042,16.938-2.939C385.791,421.436,328.367,478.608,257.833,478.608z M369.279,320.55
	c-9.345,0-16.947-7.602-16.947-16.947V202.089c0-9.345,7.602-16.947,16.947-16.947c9.345,0,16.948,7.603,16.948,16.947v101.514
	C386.227,312.948,378.624,320.55,369.279,320.55z"/>
</svg>